<svg xmlns="http://www.w3.org/2000/svg" width="90" height="60">
<rect fill="#888" width="90" height="60"/>
<rect fill="#aaa" width="90" height="40"/>
<rect fill="#ddd" width="90" height="20"/>
<path fill="#fff" d="M57.1 19.5c0,5.1 -3.7,7.6 -7.2,10.5 -2.9,2.7 -2.5,5.4 -2.5,8.9l-5.6 0c0,-3.9 -0.4,-8.1 2.4,-11.3 2.5,-2.5 7,-4.1 7,-8.2 0,-2.4 -2.4,-3.8 -4.5,-3.8 -3.8,0 -5.7,2.1 -5.7,6.4l-5.6 0c0,-6.7 4.3,-12.1 11.2,-12.1 5.3,0 10.5,3.9 10.5,9.5z"/>
<circle fill="#fff" cx="44.5" cy="46" r="3.5"/>
</svg>